<svg width="122" height="34" viewBox="0 0 122 34" fill="none" xmlns="http://www.w3.org/2000/svg">
<path d="M33.9733 23.1944C27.6889 23.1944 21.4971 23.1944 15.3054 23.1944C15.0735 24.705 16.4649 26.8897 18.2041 27.8425C21.1029 29.4229 24.7437 28.8651 27.5497 26.4248C29.1034 27.1685 30.6572 27.889 32.2341 28.6327C31.1442 32.3745 23.2364 34.9542 18.0418 33.3273C14.3546 32.1653 11.6414 29.8412 10.3195 26.1692C9.02091 22.5901 9.13686 19.011 10.8993 15.4785C10.1804 15.4785 9.53109 15.4785 8.76582 15.4785C8.76582 21.5443 8.76582 27.5869 8.76582 33.6992C6.79467 33.6992 4.91628 33.6992 2.92194 33.6992C2.92194 27.6334 2.92194 21.5908 2.92194 15.432C1.90158 15.432 0.99717 15.432 0 15.432C0 13.7354 0 12.1318 0 10.3887C0.9276 10.3887 1.8552 10.3887 2.87556 10.3887C2.87556 7.50688 2.87556 4.71799 2.87556 1.85938C4.84671 1.85938 6.7251 1.85938 8.74263 1.85938C8.74263 4.67151 8.74263 7.46039 8.74263 10.3422C9.92532 10.3422 11.0152 10.3422 12.1979 10.3422C12.1979 11.9691 12.1979 13.5262 12.1979 15.1531C12.5922 15.1531 12.8704 15.1531 13.2879 15.1531C13.2879 14.8045 13.3342 14.4559 13.2879 14.1305C12.9864 12.5734 13.8676 11.7135 15.0271 10.9697C18.3201 8.90132 21.8682 8.80836 25.4858 9.78447C30.6108 11.1789 33.7646 15.7806 33.9733 21.126C33.9965 21.7767 33.9733 22.4042 33.9733 23.1944ZM27.9439 18.4998C27.712 16.3616 24.8133 14.1072 21.8914 14.1305C18.8767 14.1305 16.0939 15.9665 15.6301 18.4998C19.7347 18.4998 23.8393 18.4998 27.9439 18.4998Z" fill="white"/>
<path d="M121.886 23.0316C115.509 23.0316 109.294 23.0316 103.056 23.0316C103.126 25.5416 105.213 27.7728 107.903 28.3073C110.5 28.8186 112.842 28.2608 114.906 26.5875C115.092 26.4248 115.463 26.2621 115.625 26.3551C117.156 27.029 118.663 27.7728 120.194 28.5165C117.805 31.8399 114.582 33.4203 110.616 33.5829C107.485 33.7224 104.563 33.1414 102.036 31.1891C99.3457 29.144 97.792 26.448 97.421 23.0549C97.1427 20.4984 97.3514 17.9884 98.5573 15.6876C100.644 11.6669 103.914 9.3196 108.529 9.08719C111.242 8.94775 113.816 9.34284 116.158 10.8302C119.336 12.8754 121.075 15.8038 121.608 19.4758C121.794 20.6378 121.817 21.7766 121.886 23.0316ZM115.903 18.3835C115.579 16.2453 112.819 13.8283 109.573 13.9213C106.581 14.0142 104.123 15.6876 103.311 18.3835C107.509 18.3835 111.66 18.3835 115.903 18.3835Z" fill="white"/>
<path d="M76.6196 28.4698C73.6745 32.5834 69.6162 33.8617 64.8623 33.5363C59.2503 33.1412 54.7746 29.2832 53.9166 23.7519C53.0817 18.2671 54.7282 13.4331 59.9692 10.435C64.0042 8.13416 70.4974 8.57574 74.1846 12.0618C77.3385 15.0367 78.3588 18.7319 78.1501 23.0082C71.8888 23.0082 65.6739 23.0082 59.459 23.0082C59.5517 25.5415 61.6157 27.7958 64.2361 28.3071C66.8798 28.8184 69.2684 28.2839 71.3786 26.5408C71.541 26.4014 71.8656 26.3084 72.028 26.4014C73.5817 27.0521 75.089 27.7494 76.6196 28.4698ZM59.7373 18.4066C63.9578 18.4066 68.0857 18.4066 72.2367 18.4066C72.028 16.3381 69.3379 13.8049 65.7899 13.9443C62.8215 14.0606 60.2938 15.9198 59.7373 18.4066Z" fill="white"/>
<path d="M39.0286 33.1414C37.0806 33.1414 35.2486 33.1414 33.2775 33.1414C33.2775 30.0504 33.2775 26.9594 33.2775 23.8219C33.7877 23.7986 34.2283 23.7522 34.8776 23.7057C34.7848 22.195 34.7616 20.7076 34.5993 19.2202C34.4138 17.6863 34.2515 16.1059 33.3007 14.758C33.2079 14.6185 33.2311 14.3629 33.2311 14.1537C33.2311 12.736 33.2311 11.3183 33.2311 9.85418C35.2022 9.85418 37.0574 9.85418 39.0054 9.85418C39.0054 10.5514 39.0054 11.1789 39.0054 12.0156C39.4228 11.7599 39.7011 11.6205 39.9794 11.4346C41.6954 10.1796 43.5043 9.22668 45.6841 9.22668C48.1886 9.20344 50.2294 10.2958 51.9222 12.0156C52.6411 12.7593 53.1977 13.7121 53.6151 14.665C53.8238 15.1066 53.7079 15.8271 53.4992 16.3151C52.3165 19.1505 52.3165 22.0556 52.8035 25.0072C52.8498 25.286 52.9194 25.5882 53.0585 25.8438C54.4268 28.1447 53.5455 30.6547 53.8702 33.1182C51.899 33.1182 50.067 33.1182 48.0727 33.1182C48.0727 32.816 48.0727 32.5139 48.0727 32.2118C48.0727 28.4933 48.0959 24.7747 48.0495 21.0562C48.0495 19.8942 47.9799 18.7321 47.748 17.6166C47.0987 14.177 43.5506 13.9213 41.5099 15.2925C39.7707 16.4778 39.075 18.3138 39.0286 20.3125C38.9358 24.3797 38.9822 28.4468 38.9822 32.5139C39.0286 32.6766 39.0286 32.8625 39.0286 33.1414Z" fill="white"/>
<path d="M77.686 23.264C78.3817 23.264 79.031 23.264 79.7731 23.264C79.8427 21.0096 79.7963 18.8482 79.0542 16.7566C78.7991 16.0128 78.8687 15.4551 79.3093 14.8276C81.8834 11.109 85.4547 9.29627 89.9303 9.06386C93.2929 8.87794 96.238 9.90053 98.9049 11.7598C97.9077 13.1775 96.8873 14.5952 95.8438 16.0826C95.3336 15.8269 94.7539 15.5016 94.1509 15.2227C91.6928 14.1071 89.2114 14.0606 86.8229 15.3389C83.9937 16.8495 82.8342 19.6384 83.414 22.9386C83.9009 25.7275 86.0576 27.7494 88.9564 28.1678C91.3913 28.5164 93.6175 28.098 95.6119 26.6106C95.751 26.5177 95.8902 26.4479 95.9134 26.4247C96.9337 27.8889 97.9309 29.3066 98.9512 30.7475C97.212 31.9328 95.2177 32.8856 93.0378 33.2807C89.0723 34.0012 85.2923 33.4434 82.0457 30.8869C79.9586 29.2368 78.4513 27.1452 77.7324 24.519C77.686 24.333 77.6396 24.1239 77.6396 23.9147C77.6396 23.752 77.6628 23.5429 77.686 23.264Z" fill="white"/>
<path d="M106.674 0C107.995 1.60361 109.271 3.1375 110.616 4.76435C108.134 6.25176 105.769 7.64621 103.404 9.06389C102.43 9.64491 101.456 10.2724 100.435 10.8069C100.157 10.9696 99.6702 11.0394 99.4151 10.8999C98.3715 10.3654 97.3743 9.73787 96.2148 9.04065C99.6933 6.06584 103.149 3.06778 106.674 0Z" fill="#DA251C"/>
</svg>
